<?xml version="1.0" encoding="UTF-8"?>
<svg width="20px" height="20px" viewBox="0 0 20 20" version="1.1" xmlns="http://www.w3.org/2000/svg" xmlns:xlink="http://www.w3.org/1999/xlink">
    <!-- Generator: Sketch 52.3 (67297) - http://www.bohemiancoding.com/sketch -->
    <title>69442</title>
    <desc>Created with Sketch.</desc>
    <g id="Diseño-Secciones" stroke-width="1" fill-rule="evenodd">
        <g id="0.0-Home" transform="translate(-216.000000, -17.000000)" fill-rule="nonzero">
            <g id="Group-34">
                <g id="Header">
                    <g id="Group">
                        <g transform="translate(216.000000, 17.000000)">
                            <g id="69442">
                                <path d="M10,0 C4.48602272,0 0,4.48624481 0,10 C0,15.5137552 4.48602272,20 10,20 C15.5135745,20 20,15.5137552 20,10 C20,4.48624481 15.5143801,0 10,0 Z M15.7746394,15 C15.7746394,14.7772936 15.7746394,14.6201576 15.7746394,14.6201576 C15.7746394,13.3064227 14.1961061,12.8272548 13.351155,12.4796156 C13.0452941,12.3542948 12.4686775,12.0873575 11.877131,11.8091685 C11.6773933,11.7152749 11.4974276,11.4650212 11.474831,11.2512386 L11.4094623,10.6289023 C11.8622012,10.2234525 12.2701503,9.65892676 12.3391506,9.02960664 L12.4412388,9.02960664 C12.601836,9.02960664 12.7531524,8.91398555 12.7769595,8.77236913 L12.9371532,7.82062914 C12.9585393,7.61732227 12.7588016,7.49394138 12.5969938,7.49394138 C12.6014325,7.47376589 12.6050641,7.45320241 12.6070816,7.43613084 C12.6276606,7.32167373 12.6401695,7.21109652 12.6482397,7.10362323 C12.6583274,7.01710141 12.6663977,6.92747568 12.6708363,6.83474602 C12.6877837,6.38545335 12.6086957,5.99241927 12.4775547,5.77242882 C12.3443962,5.46475258 12.142641,5.16600012 11.8617976,4.90992658 C11.0793907,4.19757655 10.1718955,3.92016355 9.39796227,4.4928371 C8.8709775,4.40515132 8.24472914,4.63678147 7.79239383,5.14621262 C7.54544537,5.4244016 7.39170786,5.74255357 7.32593564,6.05566167 C7.2670231,6.25082075 7.22788258,6.48710679 7.21819833,6.74279234 C7.20770705,7.02718916 7.23675981,7.28753059 7.29123373,7.49820928 C7.13709271,7.50752104 6.98295168,7.62934997 6.98295168,7.82140512 L7.14274185,8.77314511 C7.16654898,8.91476154 7.31786543,9.03038262 7.47846262,9.03038262 L7.57005952,9.03038262 C7.71532331,9.71091745 8.09139514,10.2696234 8.50741451,10.6591655 L8.44446686,11.2609383 C8.42187027,11.474333 8.24190457,11.7238107 8.04176334,11.8188683 C7.46958539,12.0873575 6.90588117,12.345759 6.56854635,12.4796156 C5.77363059,12.7946636 4.14506204,13.3064227 4.14506204,14.6201576 L4.14506204,14.9173581 C2.81831938,13.5434847 2,11.710231 2,9.69229392 C2,5.45078493 5.58882276,2 10,2 C14.4115808,2 18,5.45078493 18,9.69229392 C17.998386,11.749806 17.1489963,13.6172029 15.7746394,15 Z" id="Shape"></path>
                            </g>
                        </g>
                    </g>
                </g>
            </g>
        </g>
    </g>
</svg>