<?xml version="1.0" encoding="UTF-8"?>
<svg width="43px" height="44px" viewBox="0 0 43 44" version="1.1" xmlns="http://www.w3.org/2000/svg" xmlns:xlink="http://www.w3.org/1999/xlink">
    <!-- Generator: Sketch 52.3 (67297) - http://www.bohemiancoding.com/sketch -->
    <title>Group 81</title>
    <desc>Created with Sketch.</desc>
    <defs>
        <polygon id="path-1" points="2.7388535e-05 0.0270838446 42.9760807 0.0270838446 42.9760807 21.291474 2.7388535e-05 21.291474"></polygon>
        <polygon id="path-3" points="3.65180467e-05 0.060799182 42.9760807 0.060799182 42.9760807 21.3251264 3.65180467e-05 21.3251264"></polygon>
    </defs>
    <g id="Symbols" stroke="none" stroke-width="1" fill="none" fill-rule="evenodd">
        <g id="Header" transform="translate(-139.000000, -6.000000)">
            <g id="Group-81">
                <g transform="translate(139.000000, 6.000000)">
                    <g id="Group-3" transform="translate(0.000000, 0.062896)">
                        <mask id="mask-2" fill="white">
                            <use xlink:href="#path-1"></use>
                        </mask>
                        <g id="Clip-2"></g>
                        <path d="M21.4880677,0.0270568507 C18.6027769,0.0270568507 15.802573,0.581330879 13.1651484,1.67449243 C10.6180146,2.73022249 8.32732887,4.24241881 6.35672378,6.16915092 C4.38694034,8.09507321 2.83455817,10.3397031 1.74257728,12.8408646 C0.612708917,15.4286765 0.0272333333,18.1802511 0.00240106157,21.0191959 L2.7388535e-05,21.291474 L0.276286412,21.291474 L6.18353694,21.291474 L6.45477473,21.291474 L6.45742229,21.0241448 C6.49686178,17.089699 8.08119724,13.3969382 10.9184669,10.626198 C13.7576537,7.85338814 17.5227556,6.32634519 21.5201123,6.32634519 C25.5173777,6.32634519 29.2824796,7.85338814 32.1217577,10.626198 C34.9589361,13.3969382 36.5432715,17.089699 36.582711,21.0241448 L36.5854499,21.291474 L36.8565964,21.291474 L42.699849,21.291474 L42.9761081,21.291474 L42.9737344,21.0191959 C42.9488108,18.1802511 42.3633352,15.4286765 41.2335582,12.8408646 C40.1415773,10.3397031 38.5891038,8.09507321 36.6194117,6.16915092 C34.6488066,4.24241881 32.3581208,2.73022249 29.810987,1.67449243 C27.1735624,0.581330879 24.3733586,0.0270568507 21.4880677,0.0270568507 M21.4880677,0.296995501 C33.1418894,0.296995501 42.5994244,9.55895051 42.699849,21.0215354 L36.8565964,21.0215354 C36.7735178,12.7426969 29.9396219,6.05640654 21.5201123,6.05640654 C13.1005115,6.05640654 6.2666155,12.7426969 6.18353694,21.0215354 L0.276286412,21.0215354 C0.376619745,9.55895051 9.83415478,0.296995501 21.4880677,0.296995501" id="Fill-1" fill="#FFFFFF" mask="url(#mask-2)"></path>
                    </g>
                    <g id="Group-6" transform="translate(0.000000, 22.647763)">
                        <mask id="mask-4" fill="white">
                            <use xlink:href="#path-3"></use>
                        </mask>
                        <g id="Clip-5"></g>
                        <path d="M42.9761172,0.060799182 L42.6998582,0.060799182 L36.8557839,0.060799182 L36.5857329,0.060799182 L36.5818985,0.326958691 C36.5262998,4.24835746 34.9348433,7.92627157 32.1009516,10.683245 C29.2641384,13.4430078 25.5064314,14.9627624 21.5200301,14.9627624 C17.5336289,14.9627624 13.7760132,13.4430078 10.9392,10.683245 C8.10521699,7.92627157 6.5138518,4.24835746 6.45816178,0.326958691 L6.45441868,0.060799182 L6.18427643,0.060799182 L0.276295541,0.060799182 L3.65180467e-05,0.060799182 L0.00241019108,0.333077301 C0.0272424628,3.17202209 0.612718047,5.92359673 1.74258641,8.51140859 C2.8345673,11.0124802 4.38694947,13.2572 6.35673291,15.1830323 C8.327338,17.1097644 10.6180238,18.6220507 13.1651575,19.6777808 C15.8024909,20.7709423 18.6026947,21.3251264 21.4879856,21.3251264 C24.3733677,21.3251264 27.1735715,20.7709423 29.8109049,19.6777808 C32.3580386,18.6220507 34.6488157,17.1097644 36.6193295,15.1830323 C38.589113,13.2572 40.1415864,11.0124802 41.2335673,8.51140859 C42.3633444,5.92359673 42.94882,3.17202209 42.9737435,0.333077301 L42.9761172,0.060799182 Z M42.6998582,0.330737832 C42.5994335,11.7933227 33.1418985,21.0551877 21.4880769,21.0551877 L21.4879856,21.0551877 C9.83416391,21.0551877 0.37672017,11.7933227 0.276295541,0.330737832 L6.18427643,0.330737832 C6.30149936,8.5804229 13.1219749,15.232701 21.5200301,15.232701 C29.9181766,15.232701 36.7387435,8.5804229 36.8557839,0.330737832 L42.6998582,0.330737832 Z" id="Fill-4" fill="#FFFFFF" mask="url(#mask-4)"></path>
                    </g>
                    <path d="M19.1445677,11.3001358 C18.9898225,12.122009 16.2602811,20.2655182 11.7645444,25.5340008 C13.9559924,25.2601031 16.1819499,24.9517431 18.3921134,24.6366348 C18.6726633,23.9778045 20.0899287,20.1215509 19.1445677,11.3001358" id="Fill-7" fill="#FFFFFF"></path>
                    <path d="M21.2747202,24.2223509 C24.2504845,23.7928785 27.297459,23.3540483 30.3080981,22.9707354 C30.2603507,22.726081 30.2129686,22.4807067 30.1332679,22.24622 C28.4206628,17.1944082 25.5574654,13.6373366 20.9760938,10.8584982 C20.6135609,10.6387681 19.6635439,9.95024458 19.7122955,10.0857538 C19.8897732,10.581811 20.0303677,11.1713571 20.0303677,11.1713571 C21.2398454,17.9514961 20.1455822,22.9935902 19.7330195,24.4446904 C20.2486544,24.3704573 20.7627372,24.2963141 21.2747202,24.2223509" id="Fill-9" fill="#FFFFFF"></path>
                    <path d="M9.80920382,27.9411247 C9.83166242,28.476953 10.3505839,28.6207403 10.918896,28.6207403 L10.9337771,28.6207403 C16.8530786,28.5953661 22.7720149,28.6048139 28.6913163,28.5995051 C28.945482,28.5993252 29.6735605,28.3654683 29.8922123,28.2640613 C31.5294989,27.5040041 32.5535563,26.7680613 33.5927686,25.2662127 C33.7874098,24.9854765 34.1400828,24.3773047 34.1545987,23.7657137 C25.8469257,24.6778364 17.1111699,26.2245849 8.88557113,27.1276196 C9.48154565,27.2745562 9.79706157,27.6462618 9.80920382,27.9411247" id="Fill-11" fill="#FFFFFF"></path>
                    <polygon id="Fill-13" fill="#FFFFFF" points="4.18260361 17.3721268 5.4839242 17.701182 5.44302399 18.1038405 4.09779045 18.2058773 5.42065669 18.3234806 5.3549242 18.9701636 2.42152081 18.7094928 2.49154416 18.0221391 4.06647622 17.780364 2.56804947 17.2696401 2.63798153 16.5822863 5.57129363 16.8429571 5.50546985 17.4896401"></polygon>
                    <polygon id="Fill-15" fill="#FFFFFF" points="4.4145845 14.4543869 4.58247622 13.9769554 5.12750807 14.1443174 4.95961635 14.6217489 5.57129363 14.8096262 5.8074741 14.1380188 6.35250594 14.3053808 5.89940828 15.5941579 3.09956964 14.7344033 3.5527586 13.4457162 4.09779045 13.6130781 3.86170127 14.2845955"></polygon>
                    <polygon id="Fill-17" fill="#FFFFFF" points="5.47335223 9.92491534 6.37799554 11.2040646 8.01382144 11.3207681 7.61714416 11.9512548 6.6909552 11.8025186 7.28263885 12.4831239 6.88605287 13.1136106 5.98131826 11.8345513 4.34549236 11.7177579 4.74216964 11.0872712 5.66981932 11.2414061 5.07676624 10.555402"></polygon>
                    <polygon id="Fill-19" fill="#FFFFFF" points="7.11626263 8.00239427 9.34258535 9.80756401 8.88720531 10.2983125 6.66088259 8.49323272"></polygon>
                    <path d="M10.6637992,7.41115665 L11.2528352,6.96134888 C11.6366399,7.40044908 11.6870348,7.8650135 11.1589839,8.26839182 C10.4447822,8.81384785 10.1108246,8.62570061 9.38238089,7.79213006 C8.6774,6.98555337 8.53141911,6.59891125 9.23210913,6.06371288 C9.76016008,5.66033456 10.2371771,5.79917301 10.6209817,6.23836319 L10.0319456,6.68826094 C9.86487558,6.4970544 9.7168862,6.38583967 9.56798386,6.4996638 C9.39872272,6.62896442 9.4681983,6.7601546 9.9747949,7.33971288 C10.4917079,7.93114847 10.5963321,8.00565153 10.7655932,7.87635092 C10.9145868,7.76261677 10.8361643,7.60830184 10.6637992,7.41115665" id="Fill-21" fill="#FFFFFF"></path>
                    <path d="M13.0308715,5.40678119 C13.4069161,6.08486708 13.4889904,6.17970552 13.6829926,6.08567689 C13.8769947,5.99164826 13.8414809,5.87413497 13.4655276,5.19613906 C13.0970605,4.53173006 13.0035743,4.41637628 12.8095722,4.51040491 C12.6154788,4.60443354 12.6624958,4.74237219 13.0308715,5.40678119 M14.1445807,4.86699387 C14.6552856,5.7882045 14.7811815,6.15730061 13.9469268,6.56166871 C13.112672,6.96603681 12.8626146,6.65713701 12.3518185,5.73592638 C11.8580945,4.84557873 11.7112919,4.43869121 12.545638,4.03432311 C13.3798928,3.62995501 13.6508567,3.97655624 14.1445807,4.86699387" id="Fill-23" fill="#FFFFFF"></path>
                    <polygon id="Fill-25" fill="#FFFFFF" points="17.2876433 4.01223313 17.4200212 5.26627812 17.0027113 5.3732638 16.4234437 4.23385276 16.7751125 5.43166053 16.1047325 5.60361145 15.3250722 2.94759509 16.0375393 2.76484663 16.8380149 4.05551329 16.8174735 2.56482209 17.5298493 2.3821636 18.3095096 5.03817996 17.6393121 5.21013088"></polygon>
                    <path d="M20.4812743,3.87093824 L20.8390599,3.85051288 L20.5973104,2.89412025 L20.4812743,3.87093824 Z M20.8900025,2.00764172 L21.7669834,4.71746585 L21.0731406,4.75714683 L20.9674208,4.34180123 L20.4219325,4.37302413 L20.3707159,4.79718773 L19.6769643,4.83677873 L20.196251,2.04723272 L20.8900025,2.00764172 Z" id="Fill-27" fill="#FFFFFF"></path>
                    <path d="M24.0540448,3.43236892 C24.3873633,3.47537914 24.4678856,3.40789448 24.5129854,3.10205399 C24.5580851,2.79630348 24.505773,2.67267157 24.1723633,2.62966135 L24.0540448,3.43236892 Z M23.9942465,3.83745685 L23.8426053,4.86574315 L23.1542401,4.77684335 L23.556669,2.0477636 L24.2451255,2.13657342 C25.0547306,2.24112965 25.2977582,2.53725235 25.2132189,3.11069202 C25.1669323,3.42400082 25.0682423,3.64499059 24.8533335,3.72633211 C25.1803527,4.02173497 24.9495586,4.68911329 24.9942019,5.01429939 L24.305928,4.92548957 C24.2847476,4.65015215 24.478841,4.14149775 24.2453994,3.86984949 L23.9942465,3.83745685 Z" id="Fill-29" fill="#FFFFFF"></path>
                    <polygon id="Fill-31" fill="#FFFFFF" points="27.8969119 2.90149857 27.029517 5.53394029 26.365345 5.34264376 27.2326486 2.71020204"></polygon>
                    <polygon id="Fill-33" fill="#FFFFFF" points="31.5682355 4.40975378 30.2331357 6.86592556 29.613607 6.57160245 29.6346049 5.05373742 28.9745412 6.26801145 28.3550125 5.97368834 29.690021 3.51751656 30.3057153 3.8099501 30.2512121 5.39853906 30.9486155 4.11543067"></polygon>
                    <path d="M32.9102098,6.96266258 C32.3928403,7.55382822 32.3321291,7.66189366 32.5012989,7.79128425 C32.6704688,7.92058487 32.7717151,7.84356237 33.2890845,7.25239673 C33.7960463,6.6730184 33.8724603,6.54704703 33.7032904,6.41774642 C33.5340293,6.28844581 33.4170803,6.38337423 32.9102098,6.96266258 M33.8812246,7.70499387 C33.1783435,8.50824131 32.8655665,8.76243354 32.138127,8.20626994 C31.4106875,7.65019632 31.6151885,7.3132229 32.3180696,6.50997546 C32.9974879,5.7336319 33.3390229,5.44659714 34.0664624,6.00276074 C34.7938106,6.55883436 34.5605516,6.92865031 33.8812246,7.70499387" id="Fill-35" fill="#FFFFFF"></path>
                    <polygon id="Fill-37" fill="#FFFFFF" points="34.3554571 9.42493497 34.7304062 9.8348818 34.3162002 10.1658266 33.9412512 9.75587975"></polygon>
                    <path d="M36.6701992,11.7843067 L37.0506259,12.3999468 C36.5254051,12.6836524 36.0268425,12.6557587 35.6857639,12.1038241 C35.224541,11.3572638 35.4768807,11.079407 36.4737321,10.5408793 C37.4383563,10.0197178 37.8699996,9.94701431 38.3225495,10.6793579 C38.6635367,11.2312924 38.4404115,11.6491575 37.9151907,11.932863 L37.5348552,11.3172229 C37.7635495,11.193681 37.9046004,11.074998 37.8084667,10.9193333 C37.6991864,10.7423436 37.5493711,10.7855337 36.8562586,11.1600286 C36.148904,11.5421718 36.0534093,11.6267526 36.1626896,11.8036524 C36.2589146,11.959317 36.4343839,11.9117178 36.6701992,11.7843067" id="Fill-39" fill="#FFFFFF"></path>
                    <path d="M38.3782851,14.321964 C37.5955208,14.5409742 37.480489,14.5987411 37.5432087,14.7944466 C37.6058372,14.9901521 37.7358414,14.9793546 38.5186057,14.7604344 C39.285576,14.5458331 39.4243446,14.4814078 39.3616248,14.2856123 C39.2989051,14.0899067 39.1451641,14.1073628 38.3782851,14.321964 M38.7378966,15.4454487 C37.6745824,15.743011 37.2631153,15.7898004 36.9936121,14.9482217 C36.7242002,14.106553 37.0954975,13.9344221 38.158903,13.6369497 C39.1867034,13.3492851 39.641627,13.2902585 39.9111301,14.1319272 C40.180542,14.9735059 39.7657883,15.157874 38.7378966,15.4454487" id="Fill-41" fill="#FFFFFF"></path>
                    <polygon id="Fill-43" fill="#FFFFFF" points="38.981335 18.5159018 37.6428573 18.3652761 37.6214943 17.9612679 38.9371482 17.6794519 37.6098085 17.740908 37.5755728 17.0921554 40.5186535 16.9557464 40.5550803 17.6453497 39.0335558 18.0962372 40.5949762 18.4001881 40.631403 19.0897914 37.6883223 19.2262004 37.6540866 18.5774479"></polygon>
                    <polygon id="Fill-45" fill="#FFFFFF" points="38.8517873 26.386872 37.5341248 26.0642053 37.5737469 25.6660458 38.9337703 25.5624793 37.5953839 25.4489252 37.6590166 24.8094405 40.6268382 25.0612933 40.5591885 25.7409088 38.9674582 25.9831337 40.4851482 26.4849497 40.4174985 27.1645652 37.4497682 26.9127125 37.5133096 26.2732278"></polygon>
                    <polygon id="Fill-47" fill="#FFFFFF" points="38.6435705 29.2690699 38.4795132 29.7420924 37.9269951 29.5784196 38.0910524 29.1054871 37.470976 28.9218389 37.240182 29.5871476 36.6876639 29.4234748 37.1305365 28.146665 39.9686278 28.987254 39.5258465 30.2640638 38.9733285 30.100391 39.2040312 29.4350822"></polygon>
                    <polygon id="Fill-49" fill="#FFFFFF" points="37.6434234 33.756971 36.7102047 32.4936581 35.0591325 32.3861325 35.4485975 31.759155 36.3848289 31.9020425 35.7770773 31.2304352 36.1665423 30.6036376 37.0996696 31.8668605 38.7507418 31.9743861 38.3613682 32.6012736 37.423676 32.4530773 38.0328883 33.1300834"></polygon>
                    <polygon id="Fill-51" fill="#FFFFFF" points="36.0247609 35.6733014 33.7508735 33.893326 34.2000454 33.4033873 36.4739329 35.1833628"></polygon>
                    <path d="M32.4686244,36.2833448 L31.8854312,36.7343223 C31.4915841,36.2995411 31.432151,35.8374961 31.9550894,35.433218 C32.6623527,34.8863223 33.0013314,35.0716802 33.7487645,35.8967926 C34.4720958,36.6954511 34.6260193,37.0793939 33.9321764,37.6158519 C33.4093293,38.02022 32.927565,37.8848008 32.5337178,37.4500196 L33.1170023,36.9989521 C33.2883633,37.1882691 33.4391828,37.2981342 33.5866244,37.1840401 C33.7542423,37.0544695 33.6819365,36.9242691 33.1621934,36.3505595 C32.6317688,35.7648826 32.5252274,35.6912793 32.3577008,35.8210299 C32.2101679,35.9350339 32.2917858,36.0880892 32.4686244,36.2833448" id="Fill-53" fill="#FFFFFF"></path>
                    <path d="M30.1328389,38.293119 C29.7441955,37.6189922 29.6602953,37.5248736 29.4673887,37.619892 C29.2745735,37.7148204 29.3122783,37.8318838 29.7009217,38.5058307 C30.0816223,39.1662806 30.1773909,39.2807346 30.3702975,39.1857162 C30.5631127,39.0907877 30.5136308,38.9534789 30.1328389,38.293119 M29.0258856,38.8382151 C28.4979259,37.9225832 28.3652741,37.5551067 29.1945989,37.1466896 C30.0238325,36.7384524 30.2799153,37.0450127 30.8078749,37.9607346 C31.3181234,38.8456834 31.4724121,39.2505914 30.6430873,39.6590086 C29.8137624,40.0673358 29.5362253,39.723254 29.0258856,38.8382151" id="Fill-55" fill="#FFFFFF"></path>
                    <polygon id="Fill-57" fill="#FFFFFF" points="25.8906013 39.7117456 25.7412425 38.4595002 26.1573656 38.3500851 26.7522446 39.4849971 26.3843253 38.2904286 27.0526055 38.1146086 27.8686013 40.7634266 27.1581427 40.9504941 26.3399558 39.6657661 26.3805822 41.1550176 25.6702149 41.3418151 24.8543104 38.6929072 25.522682 38.5170871"></polygon>
                    <path d="M22.6978193,39.8717202 L22.3402163,39.8942151 L22.5904563,40.8489881 L22.6978193,39.8717202 Z M22.3055242,41.7369063 L21.4047153,39.0331108 L22.0981017,38.9893808 L22.2075645,39.4038266 L22.752779,39.3694544 L22.8002524,38.9451108 L23.4936389,38.9014708 L22.9989106,41.6931763 L22.3055242,41.7369063 Z" id="Fill-59" fill="#FFFFFF"></path>
                    <path d="M19.1259344,40.3329554 C18.792342,40.2921947 18.7120936,40.3601292 18.668272,40.6660597 C18.6244503,40.9719902 18.6774015,41.0950822 19.0109938,41.1358429 L19.1259344,40.3329554 Z M19.1839981,39.9276875 L19.3311658,38.8992213 L20.0200788,38.9834421 L19.6292444,41.7133317 L18.9404227,41.6291108 C18.1302699,41.5300434 17.8858728,41.2356303 17.9679471,40.6621006 C18.012773,40.3486119 18.1106414,40.1271722 18.3252762,40.044571 C17.9968877,39.7515076 18.2248516,39.0829595 18.1787476,38.7583133 L18.8675692,38.8426241 C18.8899365,39.1176016 18.6980342,39.6271558 18.9326626,39.8970045 L19.1839981,39.9276875 Z" id="Fill-61" fill="#FFFFFF"></path>
                    <polygon id="Fill-63" fill="#FFFFFF" points="15.2831221 40.8920254 16.1460435 38.2558945 16.8112197 38.4417922 15.9483896 41.0779231"></polygon>
                    <polygon id="Fill-65" fill="#FFFFFF" points="11.6007792 39.4141292 12.9378875 36.9536384 13.5588769 37.2419329 13.5382442 38.7558389 14.1993121 37.5394053 14.8202102 37.8277898 13.4830106 40.2881906 12.8660382 40.0016957 12.9202675 38.4170658 12.2216773 39.7025137"></polygon>
                    <path d="M10.2526607,36.885389 C10.7720386,36.2915239 10.8329325,36.1832785 10.6630323,36.0564973 C10.4930408,35.9294462 10.391338,36.0072785 9.87196008,36.6011436 C9.3630811,37.1830413 9.2864845,37.3091926 9.45638471,37.4362438 C9.62628493,37.5631149 9.74378174,37.4673767 10.2526607,36.885389 M9.2771724,36.1569145 C9.98279236,35.3500679 10.2968476,35.0937162 11.0275737,35.6395321 C11.7583911,36.1851681 11.5530684,36.5227714 10.8474484,37.329708 C10.1653826,38.1094708 9.82256943,38.398755 9.09175202,37.853029 C8.3610259,37.307393 8.59510658,36.9367673 9.2771724,36.1569145" id="Fill-67" fill="#FFFFFF"></path>
                    <polygon id="Fill-69" fill="#FFFFFF" points="8.79996369 34.4556352 8.42163673 34.0531566 8.83748599 33.7192425 9.21581295 34.1216311"></polygon>
                    <path d="M6.45593418,32.1449423 L6.06820382,31.5404597 C6.59616348,31.2514454 7.09910828,31.2718708 7.44676008,31.8139076 C7.91683864,32.546971 7.66413376,32.8260875 6.66226115,33.3744229 C5.69270701,33.9050323 5.25786837,33.9834045 4.79664544,33.264198 C4.44908493,32.7222511 4.67138854,32.304836 5.1992569,32.0160016 L5.58689597,32.6204843 C5.35710616,32.7462757 5.21559873,32.8660384 5.31364968,33.0188237 C5.42502972,33.1925742 5.57566667,33.1475845 6.2723397,32.7663411 C6.98334607,32.3772695 7.07911465,32.2920589 6.96764331,32.1183084 C6.86959236,31.9654331 6.69293631,32.0151918 6.45593418,32.1449423" id="Fill-71" fill="#FFFFFF"></path>
                    <path d="M4.71027113,29.6681382 C5.49796539,29.4374307 5.61345372,29.3782241 5.54735605,29.1856679 C5.48134968,28.9932916 5.3501586,29.0062487 4.56246433,29.2369562 C3.79065541,29.4630748 3.65143036,29.5293898 3.71743673,29.7217661 C3.7833518,29.9142323 3.93846221,29.8942569 4.71027113,29.6681382 M4.33157898,28.5633693 C5.40164904,28.2498806 5.81658535,28.1960728 6.10042187,29.0237947 C6.3840758,29.8514266 6.01131783,30.0282364 4.94124777,30.3417252 C3.9068741,30.6447763 3.44811614,30.7112712 3.16437091,29.8837292 C2.88071699,29.0561873 3.29711401,28.8663305 4.33157898,28.5633693" id="Fill-73" fill="#FFFFFF"></path>
                    <polygon id="Fill-75" fill="#FFFFFF" points="4.02466306 25.5354045 5.38139979 25.6572368 5.41207495 26.0560262 4.08811316 26.3612368 5.42869066 26.2735067 5.47789873 26.9139812 2.50514713 27.108427 2.45283503 26.4277317 3.98120658 25.95129 2.39568429 25.6825211 2.34337219 25.0016458 5.31612378 24.80729 5.36533185 25.4476744"></polygon>
                    <path d="M34.7736892,9.73344785 C34.7736892,9.9607362 34.5867168,10.1449243 34.3561053,10.1449243 C34.1254938,10.1449243 33.9386127,9.9607362 33.9386127,9.73344785 C33.9386127,9.50615951 34.1254938,9.32188139 34.3561053,9.32188139 C34.5867168,9.32188139 34.7736892,9.50615951 34.7736892,9.73344785" id="Fill-77" fill="#FFFFFF"></path>
                    <path d="M9.21823227,34.0759485 C9.21823227,34.293429 9.03938514,34.469699 8.81872484,34.469699 C8.59806454,34.469699 8.41921741,34.293429 8.41921741,34.0759485 C8.41921741,33.8584679 8.59806454,33.682198 8.81872484,33.682198 C9.03938514,33.682198 9.21823227,33.8584679 9.21823227,34.0759485" id="Fill-79" fill="#FFFFFF"></path>
                </g>
            </g>
        </g>
    </g>
</svg>